<svg width="10" height="26" viewBox="0 0 10 26" fill="none" xmlns="http://www.w3.org/2000/svg">
<path d="M9.38663 23.3415L7.28964 25.4209C7.09576 25.6148 6.86311 25.7662 6.6066 25.8656C6.35009 25.965 6.07537 26.0101 5.80003 25.9981C5.52469 25.9861 5.2548 25.9172 5.00766 25.7958C4.76051 25.6744 4.54155 25.5032 4.36481 25.2932C2.44332 22.9243 1.10809 20.1425 0.466407 17.1715C-0.152648 14.4292 -0.15549 11.5866 0.458081 8.84555C1.09796 5.86352 2.43751 3.07429 4.36821 0.703817C4.544 0.494785 4.76183 0.324426 5.00784 0.203587C5.25384 0.0827482 5.52262 0.0140773 5.79707 0.00194641C6.07152 -0.0101845 6.34563 0.0344902 6.60193 0.133127C6.85824 0.231763 7.09113 0.3822 7.28579 0.574858L9.38694 2.65842C9.73018 2.99216 9.93958 3.43804 9.9761 3.91295C10.0126 4.38786 9.87377 4.8594 9.58543 5.23966C9.00304 5.99307 8.50859 6.80956 8.11152 7.67356C7.95557 8.0151 7.70406 8.30495 7.3868 8.50877C7.06954 8.71259 6.69982 8.82183 6.32146 8.82356L4.54425 8.82181C3.79132 11.5458 3.79419 14.4223 4.55258 17.1478L6.32979 17.1495C6.70815 17.152 7.07808 17.262 7.39575 17.4664C7.71342 17.6709 7.96551 17.9612 8.12215 18.3031C8.52094 19.1678 9.01703 19.9853 9.60093 20.7399C9.89325 21.1247 10.0329 21.6024 9.99343 22.0821C9.95392 22.5618 9.73796 23.01 9.38663 23.3415Z" fill="white"/>
</svg>
