<svg class="svgicon" id="svg39" preserveAspectRatio="xMidYMid meet" xmlns="http://www.w3.org/2000/svg" viewBox="0 0 128 128"><rect x="0" y="0" width="128" height="128" style="fill: transparent" rx="50%" ry="50%"></rect><g transform="scale(0.6) translate(42.66666666666667, 42.66666666666667)"><path class="st0" d="M64,98.634c-0.887,0-1.727-0.393-2.297-1.07L8.537,34.296c-0.75-0.893-0.914-2.139-0.422-3.195 c0.492-1.059,1.553-1.734,2.719-1.734h26.582c0.887,0,1.727,0.393,2.297,1.07L64,59.337l24.285-28.9 c0.57-0.678,1.41-1.07,2.297-1.07h26.582c1.166,0,2.227,0.676,2.721,1.734c0.492,1.057,0.326,2.303-0.424,3.195L66.297,97.563 C65.727,98.241,64.885,98.634,64,98.634z"></path></g></svg>