<svg width="22" height="26" viewBox="0 0 22 26" fill="none" xmlns="http://www.w3.org/2000/svg">
<path d="M21.9882 6.75966C20.5569 6.75966 19.2363 6.28627 18.1759 5.48768C16.9596 4.5722 16.0858 3.22931 15.7772 1.68151C15.7008 1.29908 15.6596 0.904433 15.6557 0.5H11.5671L11.5622 17.7635C11.5622 19.3968 10.4969 20.7818 9.02003 21.2689C8.59143 21.4102 8.12854 21.4772 7.64655 21.4508C7.03133 21.417 6.4548 21.2317 5.95371 20.9324C4.88736 20.2957 4.16437 19.1406 4.14478 17.8192C4.11392 15.754 5.78619 14.0703 7.85326 14.0703C8.26128 14.0703 8.65315 14.1368 9.02003 14.2576V10.113C8.63306 10.0558 8.23924 10.0259 7.84101 10.0259C5.5785 10.0259 3.46245 10.9649 1.94987 12.6565C0.806612 13.9348 0.120855 15.5657 0.0150521 17.2759C-0.123569 19.5225 0.69983 21.6581 2.29666 23.2338C2.53129 23.4651 2.77767 23.6798 3.03532 23.8779C4.40439 24.9298 6.07813 25.5 7.84101 25.5C8.23924 25.5 8.63306 25.4707 9.02003 25.4134C10.6668 25.1699 12.1863 24.4173 13.3854 23.2338C14.8588 21.7799 15.6729 19.8497 15.6817 17.7952L15.6606 8.67179C16.3635 9.21315 17.132 9.66111 17.9569 10.0088C19.2398 10.5492 20.6 10.8231 21.9999 10.8226V6.75868C22.0009 6.75966 21.9892 6.75966 21.9882 6.75966Z" fill="white"/>
</svg>
