<svg width="24" height="16" viewBox="0 0 24 16" fill="none" xmlns="http://www.w3.org/2000/svg">
<path d="M13.0225 15.5C5.16434 15.5 0.683816 9.8795 0.5 0.51201H4.45205C4.57842 7.38151 7.47353 10.2878 9.77123 10.8883V0.51201H13.482V6.43275C15.7453 6.18054 18.1349 3.47838 18.9391 0.5H22.6384C22.3367 2.04175 21.7342 3.50192 20.8684 4.78927C20.0026 6.07662 18.8921 7.16349 17.6064 7.98199C19.0412 8.72853 20.3084 9.78457 21.3243 11.0805C22.3401 12.3763 23.0817 13.8826 23.5 15.5H19.4216C18.5485 12.6537 16.3656 10.444 13.482 10.1437V15.5H13.034H13.0225Z" fill="white"/>
</svg>
