<?xml version="1.0" encoding="utf-8"?><svg xmlns="http://www.w3.org/2000/svg" xmlns:xlink="http://www.w3.org/1999/xlink"><symbol viewBox="0 0 6 10" id="arrow" xmlns="http://www.w3.org/2000/svg"><path fill-rule="evenodd" clip-rule="evenodd" d="M1.707.293A1 1 0 0 0 .293 1.707L3.586 5 .293 8.293a1 1 0 0 0 1.414 1.414l4-4a1 1 0 0 0 0-1.414l-4-4Z"/></symbol><symbol fill="none" viewBox="0 0 20 16" id="tgm" xmlns="http://www.w3.org/2000/svg"><path d="M1.375 6.888c5.369-2.258 8.949-3.747 10.74-4.466C17.229.37 18.292.012 18.985 0c.152-.002.493.034.713.207a.74.74 0 0 1 .262.481c.025.139.055.454.031.7-.277 2.811-1.476 9.633-2.086 12.781-.259 1.333-.767 1.78-1.259 1.823-1.07.095-1.882-.682-2.917-1.338-1.621-1.025-2.537-1.664-4.11-2.665-1.818-1.156-.64-1.792.396-2.831.272-.272 4.984-4.41 5.075-4.785.011-.047.022-.221-.086-.314-.107-.092-.266-.06-.381-.036-.163.036-2.752 1.688-7.768 4.957-.735.487-1.4.724-1.997.712-.658-.014-1.923-.359-2.863-.654C.842 8.676-.075 8.485.005 7.87c.041-.32.498-.647 1.37-.982Z" fill="#fff"/></symbol><symbol fill="none" viewBox="0 0 22 22" id="whats" xmlns="http://www.w3.org/2000/svg"><path fill-rule="evenodd" clip-rule="evenodd" d="M18.7 3.163C16.637 1.1 13.887 0 11 0 4.95 0 0 4.95 0 11c0 1.925.55 3.85 1.513 5.5L0 22l5.775-1.512c1.65.825 3.438 1.375 5.225 1.375 6.05 0 11-4.95 11-11 0-2.888-1.238-5.638-3.3-7.7ZM11 20.075c-1.65 0-3.3-.412-4.675-1.238L6.05 18.7l-3.438.963.963-3.3-.275-.413c-.963-1.512-1.375-3.162-1.375-4.813 0-4.95 4.125-9.075 9.075-9.075 2.475 0 4.675.963 6.462 2.613 1.788 1.788 2.613 3.987 2.613 6.462 0 4.813-3.988 8.938-9.075 8.938Zm4.95-6.875c-.275-.137-1.65-.825-1.925-.825-.275-.137-.412-.137-.55.137-.137.275-.688.825-.825 1.1-.138.138-.275.138-.55.138-.275-.137-1.1-.412-2.2-1.375-.825-.688-1.375-1.65-1.512-1.925-.138-.275 0-.412.137-.55l.412-.412c.138-.138.138-.275.276-.413.137-.137 0-.275 0-.412 0-.138-.55-1.513-.825-2.063-.138-.412-.413-.412-.55-.412h-.55c-.138 0-.413 0-.688.275-.275.274-.962.962-.962 2.337 0 1.375.962 2.612 1.1 2.887.137.138 1.924 3.026 4.674 4.126 2.338.962 2.75.687 3.3.687.55 0 1.65-.688 1.788-1.238.275-.687.275-1.237.137-1.237-.137-.688-.412-.688-.687-.825Z" fill="#fff"/></symbol></svg>