<?xml version="1.0" encoding="utf-8"?><svg xmlns="http://www.w3.org/2000/svg" xmlns:xlink="http://www.w3.org/1999/xlink"><symbol viewBox="0 0 6 10" id="arrow" xmlns="http://www.w3.org/2000/svg"><path fill-rule="evenodd" clip-rule="evenodd" d="M1.707.293A1 1 0 0 0 .293 1.707L3.586 5 .293 8.293a1 1 0 0 0 1.414 1.414l4-4a1 1 0 0 0 0-1.414l-4-4Z"/></symbol><symbol fill="none" viewBox="0 0 24 24" id="ig" xmlns="http://www.w3.org/2000/svg"><path d="M12 2.169h4.916c1.156 0 1.735.289 2.168.433.579.29 1.012.434 1.446.868.434.434.723.867.868 1.446.144.433.289 1.012.433 2.168v9.832c0 1.156-.289 1.735-.433 2.168-.29.579-.434 1.012-.868 1.446-.434.434-.867.723-1.446.868-.433.144-1.012.289-2.168.433H7.084c-1.156 0-1.735-.289-2.168-.433-.579-.29-1.012-.434-1.446-.868-.434-.434-.723-.867-.868-1.446-.144-.433-.289-1.012-.433-2.168V7.084c0-1.156.289-1.735.433-2.168.29-.579.434-1.012.868-1.446.434-.434.867-.723 1.446-.868.433-.144 1.012-.289 2.168-.433H12ZM12 0H7.084c-1.3 0-2.168.29-2.891.578a6.313 6.313 0 0 0-2.169 1.446c-.723.723-1.012 1.301-1.446 2.169C.29 4.916.145 5.783 0 7.084v9.832c0 1.3.29 2.168.578 2.891.29.723.723 1.446 1.446 2.169.723.723 1.301 1.012 2.169 1.446.723.289 1.59.433 2.891.578h9.832c1.3 0 2.168-.29 2.891-.578a6.314 6.314 0 0 0 2.169-1.446c.723-.723 1.012-1.301 1.446-2.169.289-.723.433-1.59.578-2.891V7.084c0-1.3-.29-2.168-.578-2.891a6.314 6.314 0 0 0-1.446-2.169c-.723-.723-1.301-1.012-2.169-1.446C19.084.29 18.217.145 16.916 0H12Z" fill="#fff"/><path d="M12 5.783A6.17 6.17 0 0 0 5.783 12 6.17 6.17 0 0 0 12 18.217 6.17 6.17 0 0 0 18.217 12 6.17 6.17 0 0 0 12 5.783Zm0 10.265c-2.169 0-4.048-1.735-4.048-4.048 0-2.169 1.735-4.048 4.048-4.048 2.169 0 4.048 1.735 4.048 4.048 0 2.169-1.88 4.048-4.048 4.048ZM18.361 7.084a1.446 1.446 0 1 0 0-2.891 1.446 1.446 0 0 0 0 2.891Z" fill="#fff"/></symbol><symbol fill="none" viewBox="0 0 20 16" id="tgm" xmlns="http://www.w3.org/2000/svg"><path d="M1.375 6.888c5.369-2.258 8.949-3.747 10.74-4.466C17.229.37 18.292.012 18.985 0c.152-.002.493.034.713.207a.74.74 0 0 1 .262.481c.025.139.055.454.031.7-.277 2.811-1.476 9.633-2.086 12.781-.259 1.333-.767 1.78-1.259 1.823-1.07.095-1.882-.682-2.917-1.338-1.621-1.025-2.537-1.664-4.11-2.665-1.818-1.156-.64-1.792.396-2.831.272-.272 4.984-4.41 5.075-4.785.011-.047.022-.221-.086-.314-.107-.092-.266-.06-.381-.036-.163.036-2.752 1.688-7.768 4.957-.735.487-1.4.724-1.997.712-.658-.014-1.923-.359-2.863-.654C.842 8.676-.075 8.485.005 7.87c.041-.32.498-.647 1.37-.982Z" fill="#fff"/></symbol><symbol fill="none" viewBox="0 0 22 26" id="tt" xmlns="http://www.w3.org/2000/svg"><path d="M21.988 6.76a6.316 6.316 0 0 1-3.812-1.272A6.312 6.312 0 0 1 15.656.5h-4.089l-.005 17.264a3.695 3.695 0 0 1-2.542 3.505 3.724 3.724 0 0 1-1.373.182 3.69 3.69 0 0 1-1.693-.519 3.693 3.693 0 0 1-1.81-3.113 3.7 3.7 0 0 1 3.71-3.749c.407 0 .8.067 1.166.188v-4.145a8.06 8.06 0 0 0-1.179-.087 7.846 7.846 0 0 0-5.891 2.63 7.65 7.65 0 0 0-1.935 4.62 7.64 7.64 0 0 0 2.282 5.958A7.849 7.849 0 0 0 7.84 25.5c.398 0 .792-.03 1.179-.087a7.818 7.818 0 0 0 4.365-2.18 7.636 7.636 0 0 0 2.297-5.438l-.021-9.123a10.35 10.35 0 0 0 6.34 2.15V6.76h-.013Z" fill="#fff"/></symbol><symbol fill="none" viewBox="0 0 24 16" id="vk" xmlns="http://www.w3.org/2000/svg"><path d="M13.023 15.5C5.164 15.5.683 9.88.5.512h3.952c.126 6.87 3.022 9.776 5.32 10.376V.512h3.71v5.92c2.263-.251 4.653-2.954 5.457-5.932h3.7a11.72 11.72 0 0 1-1.77 4.29 11.162 11.162 0 0 1-3.263 3.192 11.441 11.441 0 0 1 3.718 3.099A12.055 12.055 0 0 1 23.5 15.5h-4.078c-.873-2.846-3.056-5.056-5.94-5.356V15.5h-.459Z" fill="#fff"/></symbol><symbol fill="none" viewBox="0 0 22 22" id="whats" xmlns="http://www.w3.org/2000/svg"><path fill-rule="evenodd" clip-rule="evenodd" d="M18.7 3.163C16.637 1.1 13.887 0 11 0 4.95 0 0 4.95 0 11c0 1.925.55 3.85 1.513 5.5L0 22l5.775-1.512c1.65.825 3.438 1.375 5.225 1.375 6.05 0 11-4.95 11-11 0-2.888-1.238-5.638-3.3-7.7ZM11 20.075c-1.65 0-3.3-.412-4.675-1.238L6.05 18.7l-3.438.963.963-3.3-.275-.413c-.963-1.512-1.375-3.162-1.375-4.813 0-4.95 4.125-9.075 9.075-9.075 2.475 0 4.675.963 6.462 2.613 1.788 1.788 2.613 3.987 2.613 6.462 0 4.813-3.988 8.938-9.075 8.938Zm4.95-6.875c-.275-.137-1.65-.825-1.925-.825-.275-.137-.412-.137-.55.137-.137.275-.688.825-.825 1.1-.138.138-.275.138-.55.138-.275-.137-1.1-.412-2.2-1.375-.825-.688-1.375-1.65-1.512-1.925-.138-.275 0-.412.137-.55l.412-.412c.138-.138.138-.275.276-.413.137-.137 0-.275 0-.412 0-.138-.55-1.513-.825-2.063-.138-.412-.413-.412-.55-.412h-.55c-.138 0-.413 0-.688.275-.275.274-.962.962-.962 2.337 0 1.375.962 2.612 1.1 2.887.137.138 1.924 3.026 4.674 4.126 2.338.962 2.75.687 3.3.687.55 0 1.65-.688 1.788-1.238.275-.687.275-1.237.137-1.237-.137-.688-.412-.688-.687-.825Z" fill="#fff"/></symbol><symbol fill="none" viewBox="0 0 22 16" id="you" xmlns="http://www.w3.org/2000/svg"><path d="M21.45 2.429c-.275-1-.962-1.715-1.925-2C17.875 0 10.863 0 10.863 0S3.988 0 2.2.429c-.962.285-1.65 1-1.925 2C0 4.286 0 8 0 8s0 3.714.413 5.571c.275 1 .962 1.715 1.924 2C3.987 16 11 16 11 16s6.875 0 8.663-.429c.962-.285 1.65-1 1.924-2C22 11.714 22 8 22 8s0-3.714-.55-5.571Zm-12.65 9V4.57L14.575 8 8.8 11.429Z" fill="#fff"/></symbol></svg>