<?xml version="1.0" encoding="UTF-8"?>
<!DOCTYPE svg PUBLIC "-//W3C//DTD SVG 1.1//EN" "http://www.w3.org/Graphics/SVG/1.1/DTD/svg11.dtd">
<!-- Creator: CorelDRAW X8 -->
<svg xmlns="http://www.w3.org/2000/svg" xml:space="preserve" width="25.3998mm" height="25.3998mm" version="1.1" style="shape-rendering:geometricPrecision; text-rendering:geometricPrecision; image-rendering:optimizeQuality; fill-rule:evenodd; clip-rule:evenodd"
viewBox="0 0 2540 2540"
 xmlns:xlink="http://www.w3.org/1999/xlink">
 <defs>
  <style type="text/css">
   <![CDATA[
    .str0 {stroke:#fff;stroke-width:42.33}
    .fil0 {fill:none}
   ]]>
  </style>
 </defs>
 <g id="Слой_x0020_1">
  <metadata id="CorelCorpID_0Corel-Layer"/>
  <path class="fil0 str0" d="M1556 1027c31,0 61,5 90,13 28,8 56,19 81,34 3,2 5,3 8,5 6,3 10,7 16,10 12,9 24,19 36,28 3,2 4,4 7,7 8,6 15,14 22,22 5,5 11,12 14,18 10,0 18,-1 28,-1 30,0 48,2 75,8 14,4 26,8 39,13 11,5 23,12 34,18 15,9 26,18 40,29 7,5 12,11 18,17 19,19 34,40 48,63 5,8 13,28 17,36 4,10 7,21 10,33 10,39 10,88 0,126 -2,10 -4,19 -8,27 -2,5 -3,9 -5,13l-8 19c-8,13 -15,26 -24,39 -6,8 -12,17 -19,24l-13 14c-4,3 -6,6 -9,9l-20 15c-2,2 -2,3 -5,4 -1,2 -3,3 -5,4 -4,2 -6,5 -10,7l-23 13c-16,8 -33,15 -50,20 -26,7 -49,11 -79,11l-1148 0c-26,0 -50,-2 -71,-7 -16,-4 -30,-9 -45,-14l-21 -9c-2,-1 -4,-2 -6,-3 -9,-5 -17,-9 -25,-14 -3,-2 -4,-3 -6,-4 -10,-7 -20,-14 -29,-21 -7,-6 -15,-12 -21,-19l-27 -31c-2,-2 -3,-3 -5,-5 -9,-13 -15,-23 -23,-36 -10,-17 -22,-42 -27,-61 -8,-31 -14,-57 -14,-92 0,-33 6,-68 17,-97l12 -27c1,-2 1,-4 2,-6 7,-15 16,-30 25,-42l17 -22c22,-29 51,-51 81,-71 8,-5 16,-9 25,-14 35,-17 81,-31 121,-31 15,0 30,-1 45,0 2,1 3,1 5,1 1,-2 2,-5 3,-7 7,-15 15,-30 23,-45 1,-2 3,-4 4,-7 12,-18 23,-35 37,-52 3,-4 6,-7 10,-11 1,-3 3,-4 5,-6 2,-3 3,-4 5,-6 3,-2 3,-4 5,-6l12 -11c9,-10 20,-18 29,-27 16,-14 34,-25 52,-37 15,-10 29,-16 42,-23 12,-7 49,-22 64,-26 20,-5 31,-9 53,-13 45,-9 105,-10 151,-3 31,6 61,13 89,24 19,7 35,14 52,23 29,15 43,25 69,43 11,8 21,17 30,26l29 27c8,8 15,16 22,25 2,2 2,3 4,5 3,4 6,7 8,11 2,2 3,4 4,5 3,4 11,15 11,18z"/>
 </g>
</svg>
