<?xml version="1.0" encoding="UTF-8"?>
<!DOCTYPE svg PUBLIC "-//W3C//DTD SVG 1.1//EN" "http://www.w3.org/Graphics/SVG/1.1/DTD/svg11.dtd">
<!-- Creator: CorelDRAW X8 -->
<svg xmlns="http://www.w3.org/2000/svg" xml:space="preserve" width="25.3998mm" height="25.3998mm" version="1.1" style="shape-rendering:geometricPrecision; text-rendering:geometricPrecision; image-rendering:optimizeQuality; fill-rule:evenodd; clip-rule:evenodd"
viewBox="0 0 2540 2540"
 xmlns:xlink="http://www.w3.org/1999/xlink">
 <defs>
  <style type="text/css">
   <![CDATA[
    .str0 {stroke:#fff;stroke-width:67.73}
    .fil0 {fill:none}
    .fil1 {fill:#fff}
   ]]>
  </style>
 </defs>
 <g id="Слой_x0020_1">
  <metadata id="CorelCorpID_0Corel-Layer"/>
  <g id="_3054161370000">
   <path class="fil0 str0" d="M1042 1864l0 62 455 0c0,-110 4,-163 51,-257 3,-6 6,-10 10,-17 17,-35 68,-113 92,-155 3,-6 6,-11 9,-17 3,-6 6,-12 10,-18 4,-7 5,-12 8,-18 4,-7 6,-11 9,-19 41,-99 50,-189 27,-295 -11,-51 -32,-95 -58,-139 -11,-17 -36,-50 -49,-63 -5,-5 -9,-9 -14,-14 -10,-10 -19,-19 -29,-28 -17,-14 -47,-34 -67,-45 -109,-60 -208,-75 -330,-49 -44,9 -116,40 -153,67l-54 42c-43,36 -85,102 -108,154 -8,19 -15,42 -21,61 -7,25 -15,65 -15,96 0,11 -2,14 -2,25 0,10 2,16 2,26 0,17 2,35 5,50 9,51 31,116 58,162 6,12 12,24 19,35 32,54 75,121 102,175 23,47 43,110 43,179z"/>
   <polygon class="fil1" points="1010,2075 1528,2075 1528,1975 1010,1975 "/>
   <path class="fil1" d="M1609 757c5,7 27,24 35,30 7,6 30,24 38,26 7,-4 11,-11 16,-17 18,-20 63,-80 82,-104 3,-3 4,-5 7,-9 3,-4 5,-6 7,-9 4,-4 6,-6 7,-12 -3,-4 -71,-56 -76,-58 -8,6 -96,123 -109,141 -3,4 -5,6 -7,12z"/>
   <path class="fil1" d="M737 664c2,3 4,5 7,9l23 29c3,3 4,6 7,9l84 104 63 -48c4,-4 4,-5 10,-7 -1,-11 -21,-33 -27,-41l-89 -115c-13,7 -73,52 -78,60z"/>
   <path class="fil1" d="M477 1114l184 48c7,-13 23,-76 23,-92l-91 -25c-18,-5 -78,-23 -93,-23 -4,0 -13,38 -14,43 -4,17 -9,30 -9,49z"/>
   <path class="fil1" d="M1854 1070c0,20 18,70 24,92l185 -48c0,-18 -17,-74 -22,-92 -22,0 -152,40 -187,48z"/>
   <polygon class="fil1" points="1222,659 1318,659 1318,465 1222,465 "/>
  </g>
 </g>
</svg>
