<?xml version="1.0" encoding="UTF-8"?>
<!DOCTYPE svg PUBLIC "-//W3C//DTD SVG 1.1//EN" "http://www.w3.org/Graphics/SVG/1.1/DTD/svg11.dtd">
<!-- Creator: CorelDRAW X8 -->
<svg xmlns="http://www.w3.org/2000/svg" xml:space="preserve" width="25.3998mm" height="25.3998mm" version="1.1" style="shape-rendering:geometricPrecision; text-rendering:geometricPrecision; image-rendering:optimizeQuality; fill-rule:evenodd; clip-rule:evenodd"
viewBox="0 0 2540 2540"
 xmlns:xlink="http://www.w3.org/1999/xlink">
 <defs>
  <style type="text/css">
   <![CDATA[
    .fil0 {fill:#fff}
   ]]>
  </style>
 </defs>
 <g id="Слой_x0020_1">
  <metadata id="CorelCorpID_0Corel-Layer"/>
  <g id="_3053897081040">
   <path class="fil0" d="M1061 691c-122,8 -242,32 -347,71 -82,31 -136,61 -203,109 -102,73 -191,176 -215,306 -22,122 8,226 79,322 80,108 84,52 64,122 -10,34 -47,134 -36,165 16,43 80,78 143,60 50,-14 206,-87 224,-88 9,0 66,18 83,22 186,41 382,40 566,-3 54,-12 110,-31 158,-51 46,-19 27,-17 78,-6 93,20 189,15 278,-12 46,-13 31,-24 75,1 54,29 103,68 148,44 72,-41 -12,-170 7,-199 4,-6 11,-11 23,-30 164,-252 0,-550 -302,-615 -32,-7 -60,-8 -92,-12 -13,-2 -21,-12 -32,-19 -178,-130 -437,-203 -699,-187zm1047 987c-2,-22 -12,-59 -17,-81 -17,-72 -13,-47 26,-102 83,-116 78,-264 -6,-370 -230,-285 -740,-149 -745,187 -1,114 57,195 138,260 94,77 260,108 396,69 21,-6 58,-24 72,-27 29,-4 105,54 136,64zm-1570 60c24,-6 175,-75 204,-83 37,-10 80,12 115,22 182,49 393,45 574,-8 14,-5 43,-12 53,-21 -15,-6 -51,-37 -65,-50 -161,-143 -178,-402 1,-568 53,-49 115,-85 202,-112 -11,-14 -79,-45 -102,-54 -273,-114 -647,-102 -887,55 -62,41 -78,54 -126,106 -102,112 -121,269 -35,404 43,69 101,102 110,125 8,19 -3,43 -9,61l-35 123z"/>
   <path class="fil0" d="M1751 1248c-33,9 -60,45 -46,88 26,85 161,46 133,-42 -9,-32 -45,-59 -87,-46z"/>
   <path class="fil0" d="M1574 1247c-91,31 -43,161 42,134 31,-10 56,-45 45,-87 -8,-32 -45,-61 -87,-47z"/>
   <path class="fil0" d="M1928 1248c-91,31 -44,159 40,133 32,-9 59,-43 47,-88 -9,-31 -46,-59 -87,-45z"/>
   <path class="fil0" d="M898 1247c-32,10 -58,44 -47,86 23,85 157,56 134,-38 -8,-31 -46,-60 -87,-48z"/>
   <path class="fil0" d="M1103 1248c-89,31 -45,159 43,133 30,-10 56,-47 45,-86 -8,-32 -46,-62 -88,-47z"/>
  </g>
 </g>
</svg>
