<svg xmlns="http://www.w3.org/2000/svg" xml:space="preserve" version="1.1" style="shape-rendering:geometricPrecision; text-rendering:geometricPrecision; image-rendering:optimizeQuality; fill-rule:evenodd; clip-rule:evenodd" viewBox="0 0 2540 2540" xmlns:xlink="http://www.w3.org/1999/xlink">
 <defs>
  <style type="text/css">
   <![CDATA[
    .str0 {stroke:#fff;stroke-width:28.6}
    .str1 {stroke:#fff;stroke-width:28.6;stroke-linecap:square;stroke-linejoin:round}
    .fil2 {fill:none}
    .fil0 {fill:#fff}
    .fil1 {fill: transparent}
   ]]>
  </style>
 </defs>
 <g id="Слой_x0020_1">
  <metadata id="CorelCorpID_0Corel-Layer"/>
  <g id="_3090156334624">
   <path class="fil0" d="M1046 1496c-17,91 -210,306 -228,405 57,27 263,104 322,107 19,-73 36,-141 54,-215 40,-160 18,-172 81,-186 50,34 101,325 121,402 56,-5 270,-82 321,-109 -15,-94 -214,-319 -228,-404 79,-1 131,-11 169,-58 54,-65 18,-118 42,-182 23,-65 193,-144 53,-307 -80,-93 -47,-10 -63,-160 -7,-63 -40,-112 -92,-131 -84,-32 -107,19 -180,-43 -91,-78 -154,-137 -293,-8 -91,85 -249,-13 -278,168 -23,139 29,73 -58,167 -33,35 -71,92 -51,170 19,77 70,87 93,134 54,108 -47,247 215,250zm287 90l91 378 242 -83c-29,-65 -194,-337 -230,-372 -39,43 -44,53 -103,77zm-462 289l241 93 92 -380c-62,-25 -65,-37 -106,-79 -48,56 -192,290 -227,366zm339 -1287c-69,41 -51,87 -143,96 -84,8 -152,-12 -178,76 -31,104 28,113 -46,191 -36,37 -101,81 -64,169 25,61 88,62 100,134 15,88 -10,163 65,192 97,38 124,-29 204,50 41,40 87,106 176,57 57,-33 51,-86 145,-95 95,-10 154,5 177,-77 30,-105 -27,-116 47,-190 38,-39 100,-78 63,-169 -26,-63 -88,-62 -100,-135 -15,-91 15,-159 -65,-191 -100,-40 -124,28 -204,-50 -41,-41 -88,-110 -177,-58z"/>
   <path class="fil1" d="M1275 690c-513,0 -506,753 -15,761 511,8 504,-761 15,-761z"/>
   <circle class="fil2 str0" cx="1267" cy="1071" r="372"/>
   <polygon class="fil2 str1" points="1267,836 1325,1015 1514,1015 1361,1126 1419,1305 1267,1194 1114,1305 1173,1126 1020,1015 1209,1015 "/>
  </g>
 </g>
</svg>