<svg xmlns="http://www.w3.org/2000/svg" xml:space="preserve" version="1.1" style="shape-rendering:geometricPrecision; text-rendering:geometricPrecision; image-rendering:optimizeQuality; fill-rule:evenodd; clip-rule:evenodd" viewBox="0 0 2540 2540" xmlns:xlink="http://www.w3.org/1999/xlink">
 <defs>
  <style type="text/css">
   <![CDATA[
    .fil0 {fill:#fff}
   ]]>
  </style>
 </defs>
 <g id="Слой_x0020_1">
  <metadata id="CorelCorpID_0Corel-Layer"/>
  <path class="fil0" d="M2271 1165c1,-8 -21,-41 -67,-86 25,-59 94,-53 101,-52l2 0c7,0 13,-6 13,-13l0 -244c0,-7 -6,-13 -13,-13 -1,0 -282,0 -325,5 -39,5 -101,77 -121,102 -180,-74 -423,-129 -738,-118 -15,1 -30,1 -44,2l-13 0 0 1c-115,7 -214,21 -300,40l-12 0 0 3c-417,96 -513,309 -530,362 -3,4 -4,8 -4,11 1,58 71,348 696,423l42 197c1,6 7,10 12,10l508 0c7,0 12,-5 13,-11l43 -205c125,-20 231,-51 321,-88 13,16 84,99 127,104 43,6 324,6 325,6 7,0 13,-6 13,-13l0 -245c0,-7 -6,-12 -13,-12l-1 0c-10,0 -81,-2 -105,-64 44,-46 66,-84 70,-102zm-1232 535l0 -40 40 0 0 40 -40 0zm110 0l0 -40 40 0 0 40 -40 0zm110 0l0 -40 40 0 0 40 -40 0zm111 0l0 -40 39 0 0 40 -39 0zm-427 -109c41,4 84,8 131,10l0 1 12 0c12,0 25,1 37,1 144,5 271,-3 385,-19l-40 186 -487 0 -38 -179zm-694 -423c14,16 51,54 118,99 -2,-31 -2,-59 -1,-86 -51,-5 -91,-10 -117,-13zm144 115c80,49 197,103 360,140l0 -207c-136,-10 -265,-23 -362,-33 -1,31 0,65 2,100zm385 146c86,18 183,31 294,37l-2 -229c-94,-4 -194,-11 -292,-19l0 211zm319 39c38,1 77,2 118,2 68,0 133,-3 193,-8 5,-79 8,-153 8,-221 -60,2 -119,3 -172,2 -46,0 -96,-2 -149,-4l2 229zm337 -8c104,-10 197,-26 280,-46 6,-67 9,-132 10,-192 -94,7 -191,14 -283,18 0,68 -3,141 -7,220zm306 -52c73,-19 137,-41 193,-63 4,-49 6,-97 8,-143 -60,6 -125,12 -192,18 0,59 -3,122 -9,188zm219 -74c57,-24 105,-49 145,-72l1 -78c-41,5 -88,10 -139,16 -1,43 -3,88 -7,134zm170 -87c49,-31 82,-58 101,-74l-5 -3c-24,3 -56,7 -94,12l-2 65zm80 -25c-21,16 -48,34 -81,54l0 27c35,-29 61,-57 81,-81zm-106 69c-40,23 -89,48 -146,71 -2,19 -3,38 -5,57 60,-31 110,-64 150,-95l1 -33zm-172 82c-57,22 -121,43 -194,61 -2,25 -5,50 -9,75 34,-10 65,-21 94,-32 37,-14 71,-29 103,-44 2,-20 4,-40 6,-60zm-220 67c-82,20 -175,35 -279,45 -2,27 -4,55 -7,84 103,-11 195,-29 277,-52 4,-26 7,-51 9,-77zm-304 47c-61,5 -124,8 -192,8 -40,0 -80,-1 -117,-2l0 84c9,1 18,1 26,1 100,4 191,1 276,-7 2,-28 5,-56 7,-84zm-334 5c-111,-6 -209,-20 -295,-38l0 87c85,16 182,29 295,35l0 -84zm-320 -43c-158,-36 -275,-87 -358,-135 2,26 6,53 10,82 28,19 60,38 97,57 66,32 149,60 251,82l0 -86zm-384 -152c-54,-34 -92,-65 -115,-87 14,42 47,103 123,164 -4,-26 -7,-52 -8,-77zm1510 184c141,-60 239,-133 303,-194 28,55 86,66 112,68l0 220c-55,0 -273,0 -309,-5 -30,-4 -86,-66 -106,-89zm305 -420c-62,-56 -161,-127 -299,-187 22,-27 72,-83 100,-87 36,-4 254,-5 309,-5l0 219c-26,0 -82,7 -110,60zm-50 -11l-2 54c41,16 73,30 97,41l4 -1c-16,-21 -49,-54 -99,-94zm-2 81l-1 25c18,-2 34,-4 48,-5 -14,-6 -30,-13 -47,-20zm-26 28l1 -38c-40,-15 -87,-32 -140,-50 0,32 0,66 -1,103 52,-5 99,-10 140,-15zm1 -64l2 -64c-18,-13 -37,-26 -59,-40 -26,-17 -54,-34 -86,-51 1,22 2,59 3,105 53,17 100,34 140,50zm-166 82c1,-41 1,-80 1,-114 -60,-19 -126,-37 -198,-55 3,54 6,117 6,187 66,-6 131,-12 191,-18zm1 -140c-1,-54 -3,-94 -4,-110 -60,-30 -130,-59 -210,-84 3,27 9,75 14,139 72,17 139,36 200,55zm-218 160c1,-73 -2,-139 -6,-195 -88,-20 -184,-37 -285,-48 5,70 9,158 8,261 93,-4 190,-11 283,-18zm-8 -221c-5,-69 -12,-119 -15,-141 -84,-24 -179,-43 -285,-54 3,25 10,76 15,147 101,11 197,28 285,48zm-300 240c1,-105 -3,-194 -8,-265 -70,-7 -141,-11 -214,-12 -18,0 -35,0 -53,1 -16,0 -32,0 -48,1l2 272c53,3 103,4 149,5 54,1 112,0 172,-2zm-10 -291c-6,-74 -13,-125 -16,-147 -82,-7 -171,-10 -266,-7 -11,1 -22,1 -33,2l2 143c33,-1 67,-2 101,-2 72,1 143,5 212,11zm-336 287l-2 -270c-105,4 -201,15 -289,29l-1 222c98,8 198,15 292,19zm-3 -295l-1 -143c-109,7 -205,20 -287,37l0 135c88,-14 184,-25 288,-29zm-314 274l0 -215c-105,18 -197,42 -273,68 -29,10 -56,19 -80,29 -4,25 -6,54 -8,85 96,10 225,22 361,33zm1 -241l0 -133c-149,35 -254,84 -330,135 -2,9 -12,41 -20,93 89,-35 207,-70 350,-95zm-387 206c1,-26 3,-50 6,-72 -55,23 -93,44 -112,60 25,3 61,7 106,12zm10 -100c5,-34 10,-61 15,-80 -63,49 -100,98 -121,134 26,-17 61,-35 106,-54z"/>
 </g>
</svg>