<svg xmlns="http://www.w3.org/2000/svg" xml:space="preserve" version="1.1" style="shape-rendering:geometricPrecision; text-rendering:geometricPrecision; image-rendering:optimizeQuality; fill-rule:evenodd; clip-rule:evenodd" viewBox="0 0 2540 2540" xmlns:xlink="http://www.w3.org/1999/xlink">
 <defs>
  <style type="text/css">
   <![CDATA[
    .fil0 {fill:#fff}
   ]]>
  </style>
 </defs>
 <g id="Слой_x0020_1">
  <metadata id="CorelCorpID_0Corel-Layer"/>
  <path class="fil0" d="M1277 2014c6,-4 3,-2 6,-6l38 -45c8,-9 14,-17 22,-26 20,-24 46,-51 64,-76l321 -382c4,-5 7,-8 11,-13 38,-45 79,-96 118,-139l64 -77c9,-10 14,-16 22,-26 7,-9 15,-16 21,-25 17,-23 40,-47 59,-69 2,-3 4,-4 6,-7 29,-34 58,-55 30,-88l-86 -102c-6,-7 -14,-18 -21,-25l-150 -178c-7,-9 -14,-18 -21,-26l-65 -77c-18,-22 -22,-32 -61,-32l-753 0c-53,0 -55,24 -84,57 -7,8 -14,18 -21,25 -45,50 -85,102 -129,153 -7,8 -14,17 -21,25l-108 128c-7,9 -14,16 -21,25 -16,20 -50,48 -25,76l290 343c3,5 6,8 10,13 4,5 7,7 11,12l150 179c13,18 29,34 43,51 21,25 41,52 64,76l150 178c11,12 56,71 66,78zm-253 -986l507 0 -63 -86c-58,-77 -116,-161 -173,-236l-18 -22c0,0 -1,1 -1,1l-236 321c-5,6 -13,15 -16,22zm-437 0l352 0c6,0 11,-10 18,-20 6,-8 11,-15 17,-23l238 -325c-82,0 -164,0 -246,0 -20,0 -42,-1 -62,0 -13,1 -11,5 -24,20 -29,32 -91,109 -122,144 -10,13 -18,21 -28,34l-143 170zm1029 0l352 0c-5,-8 -8,-10 -13,-16l-57 -67c-5,-7 -9,-12 -14,-18l-43 -49c-4,-6 -9,-12 -14,-18l-78 -92c-4,-5 -3,-4 -8,-9l-49 -58c-43,-52 -20,-41 -101,-41 -83,0 -166,0 -249,0l33 45c6,8 11,15 17,23l213 290c3,5 6,10 11,10zm-430 775l-250 -710 -349 0 299 356c32,35 78,96 111,132 14,15 25,30 38,45 33,36 82,101 112,133 14,15 24,30 39,44zm183 0c29,-28 98,-118 130,-153l131 -155c17,-23 70,-82 93,-111l244 -291 -348 0 -250 710zm-92 61l273 -771 -545 0 272 771z"/>
 </g>
</svg>