<?xml version="1.0" encoding="UTF-8"?>
<!DOCTYPE svg PUBLIC "-//W3C//DTD SVG 1.1//EN" "http://www.w3.org/Graphics/SVG/1.1/DTD/svg11.dtd">
<!-- Creator: CorelDRAW X8 -->
<svg xmlns="http://www.w3.org/2000/svg" xml:space="preserve" width="25.3998mm" height="25.3998mm" version="1.1" style="shape-rendering:geometricPrecision; text-rendering:geometricPrecision; image-rendering:optimizeQuality; fill-rule:evenodd; clip-rule:evenodd"
viewBox="0 0 2540 2540"
 xmlns:xlink="http://www.w3.org/1999/xlink">
 <defs>
  <style type="text/css">
   <![CDATA[
    .str0 {stroke:rgb(83, 177, 229);stroke-width:42.33}
    .fil0 {fill:none}
   ]]>
  </style>
 </defs>
 <g id="Слой_x0020_1">
  <metadata id="CorelCorpID_0Corel-Layer"/>
  <path class="fil0 str0" d="M1026 1418c-9,-3 -23,-19 -31,-26l-39 -35c-5,-5 -7,-6 -11,-9l-69 -63c-3,-4 -5,-6 -10,-9 -12,-10 -27,-25 -39,-36 -3,-3 -6,-6 -9,-9 -4,-4 -6,-5 -10,-9 -29,-29 -76,-69 -120,-69 -26,0 -46,2 -68,12 -10,5 -19,12 -27,19 -4,3 -6,3 -9,7 -23,22 -38,53 -38,86 0,28 3,43 16,67 5,11 12,20 19,29 3,4 5,7 8,10 5,6 11,11 16,16l75 75c4,4 5,5 8,10l48 51c4,3 4,4 8,8 2,4 5,6 8,9 4,4 4,6 8,9l16 18c29,31 73,86 99,118 21,25 38,51 57,78 31,42 66,79 124,79 62,0 97,-42 127,-88l136 -205c9,-12 17,-24 26,-36 54,-72 103,-139 163,-210l77 -91c3,-3 6,-5 8,-8l45 -49c5,-5 10,-10 15,-15 7,-10 21,-23 30,-32 15,-14 32,-33 47,-46 4,-3 5,-4 8,-7l41 -38c3,-2 4,-5 7,-7l17 -14c4,-3 5,-5 8,-8 23,-20 45,-38 69,-56l52 -41c29,-22 62,-52 62,-93 0,-32 -2,-54 -21,-79 -32,-43 -85,-54 -135,-37 -17,6 -49,25 -64,35 -10,7 -20,12 -31,19l-86 62c-38,28 -74,58 -110,88l-66 58c-17,16 -36,31 -52,47l-114 110c-15,15 -79,76 -92,92 -3,3 -3,4 -6,8 -8,8 -16,15 -24,24l-42 44c-13,15 -29,29 -42,45l-12 13c-3,2 -4,3 -6,6l-65 73z"/>
 </g>
</svg>
